g 1
v 0 -0.5 0
v 0.5 -0.5 0.5
v 0 -0.5 0.5
v 0.5 -0.5 0
v 0 -0.187 0.5
v 0 -0.187 0.401
v 0 -0.187 0
v 0.5 0.5 0.5
v 0 0.5 0.5
v 0.5 -0.187 0
v 0.5 0.5 0
v 0.401 -0.187 0
v 0.076 -0.187 0.217
v 0.217 -0.187 0.076
v 0 0.5 0.401
v 0.076 0.5 0.217
v 0.217 0.5 0.076
v 0.401 0.5 0
vt 0.5 0.5
vt 1 0
vt 0.5 0
vt 1 0.5
vt 0 0
vt 0 0.313
vt 0.099 0.313
vt 0.5 0
vt 0.5 0.313
vt 0.5 0.313
vt 1 1
vt 0.5 1
vt 0.5 0.313
vt 0 0
vt 0.5 0
vt 0 1
vt 0.5 1
vt 0.901 0.313
vt 1 0
vt 1 0.313
vt 0.576 0.283
vt 0.5 0.5
vt 0.5 0.099
vt 0.717 0.424
vt 0.901 0.5
vt 0.099 1
vt 0 1
vt 1 0
vt 0.5 0.099
vt 0.5 0
vt 0.576 0.283
vt 0.717 0.424
vt 0.901 0.5
vt 1 0.5
vt 1 1
vt 0.901 1
vt 0.283 0.313
vt 0.283 1
vt 0.717 1
vt 0.717 0.313
vt 0.576 1
vt 0.576 0.313
vn 0 -1 0
vn -1 0 0
vn 0 0 1
vn 1 0 0
vn 0 0 -1
vn 0 1 0
vn -0.924 0 -0.383
vn -0.707 0 -0.707
vn -0.383 0 -0.924
s off
f 1/1/1 2/2/1 3/3/1
f 1/1/1 4/4/1 2/2/1
f 3/5/2 5/6/2 6/7/2
f 1/8/2 6/7/2 7/9/2
f 1/8/2 3/5/2 6/7/2
f 2/2/3 5/10/3 3/3/3
f 8/11/3 9/12/3 5/10/3
f 8/11/3 5/10/3 2/2/3
f 10/13/4 2/14/4 4/15/4
f 8/16/4 2/14/4 10/13/4
f 11/17/4 8/16/4 10/13/4
f 12/18/5 1/8/5 7/9/5
f 4/19/5 12/18/5 10/20/5
f 4/19/5 1/8/5 12/18/5
f 13/21/6 7/22/6 6/23/6
f 14/24/6 7/22/6 13/21/6
f 12/25/6 7/22/6 14/24/6
f 15/26/2 6/7/2 9/27/2
f 6/7/2 5/6/2 9/27/2
f 8/28/6 15/29/6 9/30/6
f 8/28/6 16/31/6 15/29/6
f 17/32/6 16/31/6 8/28/6
f 18/33/6 17/32/6 8/28/6
f 11/34/6 18/33/6 8/28/6
f 11/35/5 12/18/5 18/36/5
f 10/20/5 12/18/5 11/35/5
f 13/37/7 6/7/7 16/38/7
f 16/38/7 6/7/7 15/26/7
f 17/39/8 14/40/8 16/41/8
f 14/40/8 13/42/8 16/41/8
f 18/36/9 12/18/9 17/39/9
f 12/18/9 14/40/9 17/39/9
