g 1
v -0.187 -0.187 -0.5
v -0.25 -0.187 -0.5
v -0.25 -0.187 0.5
v -0.187 -0.187 0.5
v -0.187 -0.25 -0.5
v -0.187 -0.25 0.5
v 0.188 -0.25 -0.5
v 0.188 -0.25 0.5
v 0.188 -0.187 -0.5
v 0.188 -0.187 0.5
v 0.25 -0.187 -0.5
v 0.25 -0.187 0.5
v 0.25 -0.5 0.5
v 0.25 -0.5 -0.5
v -0.25 -0.5 -0.5
v -0.25 -0.5 0.5
v -0.25 -0.187 -0.5
v -0.187 -0.187 -0.5
v 0.25 -0.187 -0.5
v 0.188 -0.187 -0.5
v -0.25 -0.187 0.5
v -0.187 -0.187 0.5
v 0.25 -0.187 0.5
v 0.188 -0.187 0.5
vt 0.313 1
vt 0.25 1
vt 0.25 0
vt 0.313 0
vt 1 0.25
vt 1 0.313
vt 0 0.313
vt 0 0.25
vt 0.688 1
vt 0.313 1
vt 0.313 0
vt 0.688 0
vt 1 0.313
vt 1 0.25
vt 0 0.25
vt 0 0.313
vt 0.75 1
vt 0.688 1
vt 0.688 0
vt 0.75 0
vt 1 0.313
vt 0 0.313
vt 0 0
vt 1 0
vt 0.25 1
vt 0.75 1
vt 0.75 0
vt 0.25 0
vt 1 0
vt 0 0
vt 0 0.313
vt 1 0.313
vt 0.313 0.25
vt 0.25 0
vt 0.25 0.313
vt 0.313 0.313
vt 0.688 0.25
vt 0.75 0
vt 0.75 0.313
vt 0.688 0.313
vt 0.313 0.25
vt 0.25 0.313
vt 0.313 0.313
vt 0.688 0.25
vt 0.75 0.313
vt 0.688 0.313
vn 0 1 0
vn 1 0 0
vn -1 0 0
vn 0 -1 0
vn 0 0 -1
vn 0 0 1
s off
f 1/1/1 2/2/1 3/3/1
f 1/1/1 3/3/1 4/4/1
f 5/5/2 1/6/2 4/7/2
f 5/5/2 4/7/2 6/8/2
f 7/9/1 5/10/1 6/11/1
f 7/9/1 6/11/1 8/12/1
f 9/13/3 7/14/3 8/15/3
f 9/13/3 8/15/3 10/16/3
f 11/17/1 9/18/1 10/19/1
f 11/17/1 10/19/1 12/20/1
f 11/21/2 12/22/2 13/23/2
f 14/24/2 11/21/2 13/23/2
f 15/25/4 14/26/4 13/27/4
f 15/25/4 13/27/4 16/28/4
f 15/29/3 16/30/3 3/31/3
f 2/32/3 15/29/3 3/31/3
f 5/33/5 15/34/5 17/35/5
f 18/36/5 5/33/5 17/35/5
f 7/37/5 14/38/5 15/34/5
f 7/37/5 15/34/5 5/33/5
f 19/39/5 7/37/5 20/40/5
f 19/39/5 14/38/5 7/37/5
f 16/28/6 6/41/6 21/42/6
f 6/41/6 22/43/6 21/42/6
f 16/28/6 13/27/6 6/41/6
f 13/27/6 8/44/6 6/41/6
f 8/44/6 23/45/6 24/46/6
f 13/27/6 23/45/6 8/44/6
