g 1
v -0.5 0.188 0.5
v -0.437 0.125 0.5
v -0.437 0.188 0.5
v -0.437 0 0.5
v -0.375 0 0.5
v -0.375 0.125 0.5
v -0.437 -0.062 0.5
v -0.375 -0.187 0.5
v -0.375 -0.062 0.5
v -0.5 -0.5 0.5
v -0.312 -0.5 0.5
v -0.312 -0.187 0.5
v -0.5 -0.5 0.313
v -0.312 -0.5 0.313
v -0.312 -0.187 0.375
v -0.312 -0.187 0.313
v -0.375 -0.187 0.375
v -0.375 -0.062 0.438
v -0.375 -0.062 0.375
v -0.437 -0.062 0.438
v -0.437 0 0.438
v -0.375 0 0.438
v -0.375 0.125 0.375
v -0.375 0 0.375
v -0.375 0.125 0.438
v -0.437 0.125 0.438
v -0.437 0.188 0.438
v -0.5 0.188 0.438
v -0.5 0.125 0.438
v -0.5 0.125 0.375
v -0.5 0 0.438
v -0.5 0 0.375
v -0.5 -0.062 0.438
v -0.5 -0.062 0.375
v -0.5 -0.187 0.375
v -0.5 -0.187 0.313
v -0.375 -0.187 0.313
v -0.437 -0.062 0.375
v -0.437 0 0.375
v -0.437 0.125 0.375
vt 0 1
vt 0.333 0.909
vt 0.333 1
vt 0.333 0.727
vt 0.667 0.727
vt 0.667 0.909
vt 0.333 0.636
vt 0.667 0.455
vt 0.667 0.636
vt 0 0
vt 1 0
vt 1 0.455
vt 0 0.273
vt 1 0.273
vt 0 0.455
vt 0 0
vt 0.667 0.455
vt 1 0
vt 1 0.455
vt 0.667 0.182
vt 1 0
vt 1 0.182
vt 0.667 0
vt 0.333 0.636
vt 0.667 0.455
vt 0.667 0.636
vt 0 0.636
vt 0 0.455
vt 0.333 0.091
vt 0.667 0
vt 0.667 0.091
vt 0.333 0
vt 0 0.727
vt 0.333 0.636
vt 0.333 0.727
vt 0 0.636
vt 0.667 0.091
vt 0.333 0
vt 0.333 0.091
vt 0.667 0
vt 0.667 0.909
vt 0.333 0.727
vt 0.667 0.727
vt 0.333 0.909
vt 0 0.909
vt 0 0.727
vt 0.333 0.091
vt 0.667 0
vt 0.667 0.091
vt 0.333 0
vt 0 1
vt 0.333 0.909
vt 0.333 1
vt 0 0.909
vt 0.333 0
vt 0 0.091
vt 0 0
vt 0.333 0.091
vt 0.333 0.909
vt 0.333 1
vt 0.667 0.909
vt 0.333 0.727
vt 0.667 0.727
vt 0.333 0.636
vt 0.667 0.636
vt 0.667 0.455
vt 1 0.455
vt 1 0
vt 0.667 0.455
vt 0 0
vt 0 0.455
vt 1 0.273
vt 0.667 0.273
vt 0.333 0.636
vt 0 0.455
vt 0 0.636
vt 0.333 0.182
vt 0.667 0.182
vt 0 0.636
vt 0 0.727
vt 0.667 0.182
vt 0.333 0.182
vt 0.333 0.727
vt 0.333 0.909
vt 0 0.727
vt 0 0.909
vt 0.333 0.182
vt 0.667 0.182
vt 0 0.909
vt 0 1
vt 0 0.182
vt 0 0.091
vt 0 0.091
vt 0 0.182
vt 0 0.182
vt 0 0.091
vt 0 0.273
vt 0 0.182
vn 0 0 1
vn 0 -1 0
vn 1 0 0
vn 0 1 0
vn -1 0 0
vn 0 0 -1
s off
f 1/1/1 2/2/1 3/3/1
f 1/1/1 4/4/1 2/2/1
f 2/2/1 5/5/1 6/6/1
f 4/4/1 5/5/1 2/2/1
f 1/1/1 7/7/1 4/4/1
f 7/7/1 8/8/1 9/9/1
f 7/7/1 10/10/1 8/8/1
f 8/8/1 11/11/1 12/12/1
f 10/10/1 11/11/1 8/8/1
f 1/1/1 10/10/1 7/7/1
f 10/10/2 13/13/2 11/11/2
f 13/13/2 14/14/2 11/11/2
f 12/15/3 11/16/3 15/17/3
f 15/17/3 14/18/3 16/19/3
f 11/16/3 14/18/3 15/17/3
f 17/20/4 12/21/4 15/22/4
f 8/23/4 12/21/4 17/20/4
f 18/24/3 17/25/3 19/26/3
f 9/27/3 8/28/3 18/24/3
f 18/24/3 8/28/3 17/25/3
f 20/29/4 9/30/4 18/31/4
f 7/32/4 9/30/4 20/29/4
f 4/33/3 20/34/3 21/35/3
f 4/33/3 7/36/3 20/34/3
f 22/37/2 4/38/2 21/39/2
f 5/40/2 4/38/2 22/37/2
f 23/41/3 22/42/3 24/43/3
f 25/44/3 22/42/3 23/41/3
f 6/45/3 5/46/3 25/44/3
f 25/44/3 5/46/3 22/42/3
f 26/47/4 6/48/4 25/49/4
f 2/50/4 6/48/4 26/47/4
f 3/51/3 26/52/3 27/53/3
f 3/51/3 2/54/3 26/52/3
f 3/55/4 28/56/4 1/57/4
f 27/58/4 28/56/4 3/55/4
f 29/59/5 1/1/5 28/60/5
f 30/61/5 31/62/5 29/59/5
f 32/63/5 31/62/5 30/61/5
f 29/59/5 31/62/5 1/1/5
f 31/62/5 33/64/5 1/1/5
f 34/65/5 35/66/5 33/64/5
f 36/67/5 13/68/5 35/66/5
f 35/66/5 10/10/5 33/64/5
f 13/68/5 10/10/5 35/66/5
f 10/10/5 1/1/5 33/64/5
f 16/19/6 14/18/6 37/69/6
f 37/69/6 13/70/6 36/71/6
f 14/18/6 13/70/6 37/69/6
f 16/72/4 17/20/4 15/22/4
f 37/73/4 17/20/4 16/72/4
f 17/25/6 38/74/6 19/26/6
f 35/75/6 34/76/6 38/74/6
f 35/75/6 38/74/6 17/25/6
f 38/77/4 18/31/4 19/78/4
f 38/77/4 20/29/4 18/31/4
f 33/79/6 21/35/6 20/34/6
f 33/79/6 31/80/6 21/35/6
f 21/39/2 24/81/2 22/37/2
f 21/39/2 39/82/2 24/81/2
f 39/83/6 23/41/6 24/43/6
f 39/83/6 40/84/6 23/41/6
f 32/85/6 30/86/6 40/84/6
f 32/85/6 40/84/6 39/83/6
f 40/87/4 25/49/4 23/88/4
f 40/87/4 26/47/4 25/49/4
f 29/89/6 27/53/6 26/52/6
f 29/89/6 28/90/6 27/53/6
f 30/91/4 26/47/4 40/87/4
f 30/91/4 29/92/4 26/47/4
f 31/93/2 39/82/2 21/39/2
f 31/93/2 32/94/2 39/82/2
f 34/95/4 20/29/4 38/77/4
f 34/95/4 33/96/4 20/29/4
f 36/97/4 17/20/4 37/73/4
f 36/97/4 35/98/4 17/20/4
