g 1
v -0.25 -0.375 0
v -0.5 -0.437 0
v -0.25 -0.437 0
v -0.5 -0.375 0
v -0.5 -0.5 -0.5
v -0.5 -0.437 -0.437
v -0.5 -0.437 -0.5
v -0.5 -0.437 -0.25
v -0.5 -0.375 -0.437
v -0.5 -0.375 -0.25
v -0.5 -0.437 -0.125
v -0.5 -0.375 -0.125
v -0.5 -0.437 0.063
v -0.5 -0.375 0.125
v -0.5 -0.375 0.063
v -0.5 -0.5 0.401
v -0.5 -0.339 0.172
v -0.5 -0.301 0.217
v -0.5 -0.26 0.26
v -0.5 -0.217 0.301
v -0.5 -0.172 0.339
v -0.5 -0.125 0.375
v -0.5 -0.062 0.401
v -0.5 -0.062 0.375
v -0.25 -0.437 0.063
v -0.25 -0.437 0.062
v -0.25 -0.187 0.062
v -0.25 -0.375 -0.125
v -0.25 -0.375 -0.25
v -0.25 -0.437 -0.125
v -0.25 -0.437 -0.25
v -0.25 -0.375 -0.437
v -0.25 -0.437 -0.5
v -0.25 -0.437 -0.437
v -0.25 -0.187 -0.5
v -0.489 -0.125 0.375
v -0.473 -0.176 0.336
v -0.456 -0.224 0.295
v -0.44 -0.264 0.257
v -0.424 -0.302 0.217
v -0.384 -0.335 0.177
v -0.358 -0.356 0.151
v -0.332 -0.375 0.125
v -0.283 -0.375 0.076
v -0.25 -0.375 0.063
v -0.25 -0.5 -0.5
v -0.25 -0.5 0.062
v -0.283 -0.5 0.076
v -0.424 -0.5 0.217
v -0.5 0.438 0.438
v -0.5 0.5 0.5
v -0.5 0.5 0.438
v -0.5 0.438 0.401
v -0.5 0.25 0.438
v -0.5 0.25 0.401
v -0.5 0.125 0.401
v -0.5 0 0.401
v -0.5 0.125 0.438
v -0.5 0 0.438
v -0.5 -0.062 0.438
v -0.5 -0.5 0.5
v -0.489 -0.062 0.375
v -0.099 0.5 0
v -0.187 -0.187 0.036
v -0.283 0.5 0.076
v -0.099 -0.25 0
v -0.187 -0.25 0.036
v -0.187 -0.25 -0.5
v -0.187 -0.187 -0.5
v 0.25 -0.437 -0.5
v 0.188 -0.25 -0.5
v 0.25 -0.187 -0.5
v 0.188 -0.187 -0.5
v -0.424 0.5 0.217
v -0.489 0.438 0.375
v -0.5 0.5 0.401
v -0.489 0.25 0.375
v -0.489 0.125 0.375
v -0.489 0 0.375
v 0.25 -0.5 -0.5
v 0.099 -0.5 0
v 0.25 -0.5 0.062
v -0.099 -0.5 0
v -0.25 -0.5 0.5
v 0.5 -0.5 0.5
v 0.25 -0.187 0.5
v 0.25 -0.5 0.5
v 0.188 -0.25 0.5
v -0.187 -0.187 0.5
v -0.187 -0.25 0.5
v 0.188 -0.187 0.5
v 0.5 0.5 0.5
v -0.25 -0.187 0.5
v 0.5 0.5 0.438
v -0.5 0.25 0.375
v -0.5 0.438 0.375
v -0.5 0.125 0.375
v -0.5 0 0.375
v 0.099 -0.25 0
v 0.188 -0.25 0.036
v 0.099 0.5 0
v 0.283 0.5 0.076
v 0.424 0.5 0.217
v 0.5 0.5 0.401
v 0.25 -0.437 0.062
v 0.25 -0.375 0
v 0.25 -0.187 0.062
v 0.25 -0.437 0
v 0.25 -0.375 -0.125
v 0.25 -0.375 -0.25
v 0.25 -0.437 -0.125
v 0.25 -0.437 -0.25
v 0.25 -0.375 -0.437
v 0.25 -0.437 -0.437
v 0.188 -0.187 0.036
v 0.5 -0.5 -0.5
v 0.5 -0.437 -0.5
v 0.424 -0.5 0.217
v 0.5 -0.5 0.401
v 0.283 -0.5 0.076
v 0.5 0.438 0.438
v 0.5 0.25 0.438
v 0.5 0.438 0.401
v 0.5 0.25 0.401
v 0.5 0.125 0.438
v 0.5 0 0.401
v 0.5 0.125 0.401
v 0.5 0 0.438
v 0.5 -0.062 0.438
v 0.5 -0.062 0.401
v 0.25 -0.437 0.063
v 0.25 -0.375 0.063
v 0.283 -0.375 0.076
v 0.424 -0.302 0.217
v 0.399 -0.323 0.192
v 0.332 -0.375 0.125
v 0.374 -0.344 0.167
v 0.489 0.438 0.375
v 0.489 0.25 0.375
v 0.489 0.125 0.375
v 0.489 0 0.375
v 0.489 -0.062 0.375
v 0.489 -0.125 0.375
v 0.474 -0.173 0.338
v 0.458 -0.22 0.299
v 0.441 -0.262 0.259
v 0.5 -0.437 -0.437
v 0.5 -0.375 -0.437
v 0.5 -0.375 -0.25
v 0.5 -0.437 -0.25
v 0.5 -0.437 -0.125
v 0.5 -0.375 -0.125
v 0.5 -0.375 0
v 0.5 -0.437 0
v 0.5 -0.437 0.063
v 0.5 -0.375 0.125
v 0.5 -0.375 0.063
v 0.5 -0.339 0.172
v 0.5 -0.301 0.217
v 0.5 -0.26 0.26
v 0.5 -0.217 0.301
v 0.5 -0.172 0.339
v 0.5 -0.125 0.375
v 0.5 -0.062 0.375
v 0.5 0 0.375
v 0.5 0.125 0.375
v 0.5 0.438 0.375
v 0.5 0.25 0.375
vt 0.25 0.125
vt 0 0.063
vt 0.25 0.063
vt 0 0.125
vt 1 0
vt 0.938 0.063
vt 1 0.063
vt 0.75 0.063
vt 0.938 0.125
vt 0.75 0.125
vt 0.625 0.063
vt 0.5 0.125
vt 0.625 0.125
vt 0.5 0.063
vt 0.438 0.063
vt 0.375 0.125
vt 0.438 0.125
vt 0.099 0
vt 0.328 0.161
vt 0.283 0.199
vt 0.24 0.24
vt 0.199 0.283
vt 0.161 0.328
vt 0.125 0.375
vt 0.099 0.438
vt 0.125 0.438
vt 0.25 0.5
vt 0.25 0.438
vt 0.25 0.438
vt 0 0.5
vt 0 0.438
vt 0.5 0.125
vt 0.5 0.063
vt 0.438 0.063
vt 0.438 0.313
vt 0.625 0.125
vt 0.75 0.125
vt 0.625 0.063
vt 0.75 0.063
vt 0.938 0.125
vt 1 0.063
vt 0.938 0.063
vt 1 0.313
vt 0.25 0.625
vt 0 0.5
vt 0.25 0.5
vt 0 0.625
vt 0 0.328
vt 0.011 0.375
vt 0.027 0.324
vt 0 0.375
vt 0 0.283
vt 0.044 0.276
vt 0 0.24
vt 0.06 0.236
vt 0 0.283
vt 0.06 0.243
vt 0.076 0.283
vt 0 0.328
vt 0.116 0.323
vt 0.142 0.349
vt 0 0.375
vt 0.168 0.375
vt 0.217 0.424
vt 0 0.438
vt 0.25 0.438
vt 0.25 0.063
vt 0 0.125
vt 0.25 0.125
vt 0 0.063
vt 0.25 0.063
vt 0 0.063
vt 0.25 0.125
vt 0 0.125
vt 0.25 0.75
vt 0 0.625
vt 0.25 0.625
vt 0 0.75
vt 0.25 0.125
vt 0 0.063
vt 0.25 0.063
vt 0 0.125
vt 0.25 0.938
vt 0 0.75
vt 0.25 0.75
vt 0 0.938
vt 0.25 0.063
vt 0 0.063
vt 0.25 0.125
vt 0 0.125
vt 0.25 1
vt 0 0.938
vt 0.25 0.938
vt 0 1
vt 0.25 0
vt 0 0
vt 0.25 0.063
vt 0 0.063
vt 0.25 0.438
vt 0 1
vt 0.25 1
vt 0.217 0.424
vt 0.076 0.283
vt 0 0.099
vt 0.063 0.938
vt 0 1
vt 0.063 1
vt 0.099 0.938
vt 0.063 0.75
vt 0.099 0.75
vt 0.099 0.625
vt 0.099 0.5
vt 0.063 0.625
vt 0.063 0.5
vt 0.063 0.438
vt 0 0
vt 0 0.125
vt 0 0.099
vt 0.011 0.125
vt 0.011 0.438
vt 0 0.438
vt 0.401 1
vt 0.313 0.313
vt 0.217 1
vt 0.401 0.25
vt 0.313 0.25
vt 0.25 0.313
vt 0.25 0.063
vt 0.217 0.125
vt 0.313 0.25
vt 0.25 0.313
vt 0.313 0.313
vt 0.75 0.063
vt 0.688 0.25
vt 0.75 0.313
vt 0.688 0.313
vt 0.25 1
vt 0.25 0.438
vt 0.313 0.464
vt 0.313 1
vt 0.168 0.125
vt 0.142 0.144
vt 0.116 0.165
vt 0.424 1
vt 0.283 0.198
vt 0.283 1
vt 0.424 0.125
vt 0.076 0.198
vt 0.125 0.938
vt 0.099 1
vt 0.125 0.75
vt 0.125 0.625
vt 0.125 0.5
vt 0.125 0.438
vt 0.164 0.324
vt 0.125 0.375
vt 0.243 0.236
vt 0.205 0.276
vt 0.75 0
vt 0.599 0.5
vt 0.75 1
vt 0.75 0.438
vt 0.401 0.5
vt 0.25 0
vt 1 0
vt 0.75 0.313
vt 0.75 0
vt 0.688 0.25
vt 0.313 0.313
vt 0.313 0.25
vt 0.688 0.313
vt 1 1
vt 0.25 0.313
vt 1 0
vt 0 0.063
vt 0 0
vt 1 0.063
vt 0.125 0.75
vt 0.125 0.938
vt 0.125 0.625
vt 0.125 0.5
vt 0.313 1
vt 0.313 0.464
vt 0.401 0.5
vt 0.688 1
vt 0.599 0.5
vt 0.688 0.464
vt 1 0.25
vt 0.464 0.313
vt 0.464 0.25
vt 1 0.313
vt 0.076 0.283
vt 0 0.099
vt 0.217 0.424
vt 0.401 0.5
vt 0.599 0.5
vt 0.783 0.424
vt 0.924 0.283
vt 1 0.099
vt 0.599 1
vt 0.599 0.25
vt 0.438 0.063
vt 0.5 0.125
vt 0.438 0.313
vt 0.5 0.063
vt 0.625 0.125
vt 0.75 0.125
vt 0.625 0.063
vt 0.75 0.063
vt 1 0.313
vt 0.938 0.125
vt 1 0.063
vt 0.938 0.063
vt 0.75 1
vt 0.688 0.464
vt 0.75 0.438
vt 0.688 1
vt 1 0.25
vt 0.464 0.25
vt 0.464 0.313
vt 1 0.313
vt 0 0.099
vt 0 0.125
vt 0.011 0.125
vt 0 0.5
vt 0.011 0.625
vt 0.011 0.5
vt 0 0.625
vt 0 0.125
vt 0 0.099
vt 0.011 0.125
vt 0 0.099
vt 0 0.125
vt 0.011 0.125
vt 0 0.75
vt 0.011 0.938
vt 0.011 0.75
vt 0 0.938
vt 0 0.125
vt 0 0.099
vt 0.011 0.125
vt 1 0
vt 1 0.063
vt 0.924 0.283
vt 1 1
vt 1 0.099
vt 0.783 0.424
vt 0 1
vt 0.063 0.938
vt 0.063 1
vt 0.063 0.75
vt 0.099 0.938
vt 0.099 0.75
vt 0.063 0.625
vt 0.099 0.5
vt 0.099 0.625
vt 0.063 0.5
vt 0.063 0.438
vt 0.099 0
vt 0.099 0.438
vt 0 0
vt 0.783 1
vt 0.688 0.313
vt 0.75 0.313
vt 0.688 0.25
vt 0.75 0.063
vt 0.75 0.063
vt 0.75 0.125
vt 0.783 0.125
vt 0.099 1
vt 0.283 1
vt 0.283 0.198
vt 0.424 1
vt 0.308 0.177
vt 0.832 0.125
vt 0.874 0.156
vt 0.899 0.177
vt 0.125 0.938
vt 0.125 0.75
vt 0.125 0.625
vt 0.125 0.5
vt 0.125 0.438
vt 0.125 0.375
vt 0.162 0.327
vt 0.201 0.28
vt 0.241 0.238
vt 1 1
vt 0.75 0.938
vt 1 0.938
vt 0.75 1
vt 1 0.063
vt 0.75 0.125
vt 1 0.125
vt 0.75 0.063
vt 1 0.938
vt 0.75 0.75
vt 1 0.75
vt 0.75 0.938
vt 1 0.125
vt 1 0.063
vt 1 0.75
vt 0.75 0.625
vt 1 0.625
vt 0.75 0.75
vt 1 0.063
vt 0.75 0.125
vt 1 0.125
vt 0.75 0.063
vt 1 0.625
vt 0.75 0.5
vt 1 0.5
vt 0.75 0.625
vt 1 0.125
vt 0.75 0.063
vt 1 0.063
vt 0.75 0.125
vt 1 0.5
vt 0.75 0.438
vt 1 0.438
vt 0.75 0.5
vt 0.75 0.438
vt 0.938 0.063
vt 0.75 0.063
vt 0.938 0.125
vt 0.75 0.125
vt 0.625 0.063
vt 0.5 0.063
vt 0.625 0.125
vt 0.5 0.125
vt 0.375 0.125
vt 0.438 0.063
vt 0.438 0.125
vt 0.328 0.161
vt 0.283 0.199
vt 0.24 0.24
vt 0.199 0.283
vt 0.161 0.328
vt 0.125 0.375
vt 0.125 0.438
vt 0.125 0.5
vt 0.125 0.625
vt 0.125 0.938
vt 0.125 0.75
vt 1 0.438
vt 0.832 0.375
vt 1 0.375
vt 0.783 0.424
vt 0.75 0.438
vt 1 0.063
vt 1 0.125
vt 1 0.328
vt 0.989 0.375
vt 1 0.375
vt 0.974 0.327
vt 1 0.283
vt 0.958 0.28
vt 1 0.24
vt 0.941 0.238
vt 1 0.283
vt 0.941 0.241
vt 0.924 0.283
vt 0.899 0.308
vt 1 0.328
vt 0.874 0.333
vt 0.989 0.125
vt 1 0.099
vt 1 0.125
vt 1 0.438
vt 0.989 0.438
vt 0.989 0.125
vt 1 0.099
vt 1 0.125
vt 0.989 0.75
vt 1 0.938
vt 1 0.75
vt 0.989 0.938
vt 1 0.099
vt 0.989 0.125
vt 1 0.125
vt 0.989 0.125
vt 1 0.099
vt 1 0.125
vt 0.989 0.5
vt 1 0.625
vt 1 0.5
vt 0.989 0.625
vt 1 0.099
vt 0.989 0.125
vt 1 0.125
vn 0 0 1
vn -1 0 0
vn 0 1 0
vn -0.005 0.604 -0.797
vn 0 0.603 -0.797
vn -0.006 0.65 -0.76
vn 0.005 0.646 -0.763
vn -0.002 0.692 -0.722
vn 0.005 0.687 -0.726
vn 0 0.728 -0.685
vn 0.002 0.726 -0.687
vn 0.001 0.762 -0.647
vn -0.001 0.786 -0.618
vn 0 0.763 -0.646
vn 0 0.805 -0.593
vn 0.003 0.797 -0.603
vn 0 0 -1
vn 0 -1 0
vn -0.383 0 -0.924
vn -0.707 0 -0.707
vn -0.924 0 -0.383
vn 1 0 0
vn 0.383 0 -0.924
vn 0.707 0 -0.707
vn 0.924 0 -0.383
vn 0.002 0.604 -0.797
vn -0.002 0.646 -0.763
vn 0.002 0.648 -0.762
vn -0.002 0.687 -0.726
vn 0.001 0.689 -0.725
vn -0.001 0.726 -0.687
vn 0 0.727 -0.686
vn -0.004 0.763 -0.646
vn 0 0.756 -0.655
vn -0.001 0.797 -0.603
vn 0.001 0.775 -0.632
vn 0 0.799 -0.601
s off
f 1/1/1 2/2/1 3/3/1
f 4/4/1 2/2/1 1/1/1
f 5/5/2 6/6/2 7/7/2
f 6/6/2 8/8/2 9/9/2
f 5/5/2 8/8/2 6/6/2
f 8/8/2 10/10/2 9/9/2
f 5/5/2 11/11/2 8/8/2
f 11/11/2 4/12/2 12/13/2
f 2/14/2 4/12/2 11/11/2
f 13/15/2 14/16/2 15/17/2
f 14/16/2 16/18/2 17/19/2
f 13/15/2 16/18/2 14/16/2
f 16/18/2 18/20/2 17/19/2
f 16/18/2 19/21/2 18/20/2
f 16/18/2 20/22/2 19/21/2
f 16/18/2 21/23/2 20/22/2
f 16/18/2 22/24/2 21/23/2
f 22/24/2 23/25/2 24/26/2
f 5/5/2 16/18/2 11/11/2
f 11/11/2 16/18/2 2/14/2
f 2/14/2 16/18/2 13/15/2
f 16/18/2 23/25/2 22/24/2
f 3/27/3 25/28/3 26/29/3
f 3/27/3 2/30/3 25/28/3
f 2/30/3 13/31/3 25/28/3
f 1/32/2 3/33/2 26/34/2
f 27/35/2 28/36/2 1/32/2
f 27/35/2 1/32/2 26/34/2
f 29/37/2 30/38/2 28/36/2
f 29/37/2 31/39/2 30/38/2
f 29/37/2 28/36/2 27/35/2
f 32/40/2 33/41/2 34/42/2
f 35/43/2 32/40/2 29/37/2
f 35/43/2 29/37/2 27/35/2
f 35/43/2 33/41/2 32/40/2
f 28/44/3 4/45/3 1/46/3
f 12/47/3 4/45/3 28/44/3
f 21/48/4 36/49/4 37/50/4
f 21/48/5 22/51/5 36/49/5
f 20/52/6 37/50/6 38/53/6
f 20/52/7 21/48/7 37/50/7
f 19/54/8 38/53/8 39/55/8
f 19/54/9 20/52/9 38/53/9
f 18/56/10 39/57/10 40/58/10
f 18/56/11 19/54/11 39/57/11
f 17/59/12 40/58/12 41/60/12
f 17/59/13 41/60/13 42/61/13
f 17/59/14 18/56/14 40/58/14
f 14/62/15 42/61/15 43/63/15
f 14/62/16 17/59/16 42/61/16
f 44/64/3 15/65/3 43/63/3
f 15/65/3 14/62/3 43/63/3
f 45/66/3 15/65/3 44/64/3
f 25/67/17 15/68/17 45/69/17
f 13/70/17 15/68/17 25/67/17
f 30/71/17 11/72/17 28/73/17
f 11/72/17 12/74/17 28/73/17
f 31/75/3 11/76/3 30/77/3
f 8/78/3 11/76/3 31/75/3
f 29/79/1 8/80/1 31/81/1
f 10/82/1 8/80/1 29/79/1
f 32/83/3 10/84/3 29/85/3
f 9/86/3 10/84/3 32/83/3
f 34/87/17 6/88/17 32/89/17
f 6/88/17 9/90/17 32/89/17
f 33/91/3 6/92/3 34/93/3
f 7/94/3 6/92/3 33/91/3
f 46/95/17 5/96/17 33/97/17
f 5/96/17 7/98/17 33/97/17
f 47/99/18 5/100/18 46/101/18
f 48/102/18 5/100/18 47/99/18
f 49/103/18 5/100/18 48/102/18
f 16/104/18 5/100/18 49/103/18
f 50/105/2 51/106/2 52/107/2
f 53/108/2 54/109/2 50/105/2
f 55/110/2 54/109/2 53/108/2
f 50/105/2 54/109/2 51/106/2
f 56/111/2 57/112/2 58/113/2
f 57/112/2 59/114/2 58/113/2
f 23/25/2 16/18/2 60/115/2
f 16/18/2 61/116/2 60/115/2
f 61/116/2 51/106/2 60/115/2
f 60/115/2 51/106/2 59/114/2
f 59/114/2 51/106/2 58/113/2
f 58/113/2 51/106/2 54/109/2
f 24/117/3 23/118/3 62/119/3
f 22/51/17 62/120/17 36/49/17
f 22/51/17 24/121/17 62/120/17
f 63/122/19 64/123/19 65/124/19
f 66/125/19 64/123/19 63/122/19
f 66/125/19 67/126/19 64/123/19
f 64/123/19 27/127/19 65/124/19
f 26/128/19 25/67/19 45/69/19
f 27/127/19 26/128/19 45/69/19
f 27/127/19 45/69/19 44/129/19
f 44/129/19 65/124/19 27/127/19
f 68/130/17 33/97/17 35/131/17
f 69/132/17 68/130/17 35/131/17
f 70/133/17 33/97/17 68/130/17
f 71/134/17 70/133/17 68/130/17
f 72/135/17 71/134/17 73/136/17
f 72/135/17 70/133/17 71/134/17
f 35/137/3 27/138/3 64/139/3
f 69/140/3 35/137/3 64/139/3
f 43/141/20 42/142/20 44/129/20
f 42/142/20 41/143/20 44/129/20
f 65/144/20 40/145/20 74/146/20
f 44/147/20 40/145/20 65/144/20
f 41/143/20 40/148/20 44/129/20
f 74/146/21 75/149/21 76/150/21
f 75/149/21 53/108/21 76/150/21
f 74/146/21 77/151/21 75/149/21
f 74/146/21 78/152/21 77/151/21
f 77/151/21 56/111/21 55/110/21
f 78/152/21 56/111/21 77/151/21
f 79/153/21 23/25/21 57/112/21
f 62/154/21 23/25/21 79/153/21
f 78/152/21 40/145/21 79/153/21
f 74/146/21 40/145/21 78/152/21
f 62/154/21 37/155/21 36/156/21
f 40/145/21 39/157/21 79/153/21
f 79/153/21 38/158/21 62/154/21
f 62/154/21 38/158/21 37/155/21
f 39/157/21 38/158/21 79/153/21
f 80/159/17 33/97/17 70/133/17
f 46/95/17 33/97/17 80/159/17
f 81/160/18 80/161/18 82/162/18
f 83/163/18 80/161/18 81/160/18
f 47/99/18 46/101/18 83/163/18
f 83/163/18 46/101/18 80/161/18
f 16/104/18 84/164/18 61/116/18
f 16/104/18 49/103/18 84/164/18
f 49/103/18 48/102/18 84/164/18
f 48/102/18 47/99/18 84/164/18
f 85/165/1 86/166/1 87/167/1
f 88/168/1 89/169/1 90/170/1
f 91/171/1 89/169/1 88/168/1
f 86/166/1 92/172/1 91/171/1
f 85/165/1 92/172/1 86/166/1
f 91/171/1 92/172/1 89/169/1
f 84/164/1 93/173/1 61/116/1
f 89/169/1 51/106/1 93/173/1
f 93/173/1 51/106/1 61/116/1
f 92/172/1 51/106/1 89/169/1
f 92/174/3 52/175/3 51/176/3
f 94/177/3 52/175/3 92/174/3
f 76/150/2 53/108/2 52/107/2
f 53/108/2 50/105/2 52/107/2
f 95/178/2 53/108/2 96/179/2
f 55/110/2 53/108/2 95/178/2
f 55/110/2 58/113/2 54/109/2
f 56/111/2 58/113/2 55/110/2
f 57/112/2 97/180/2 98/181/2
f 57/112/2 56/111/2 97/180/2
f 57/112/2 23/25/2 59/114/2
f 23/25/2 60/115/2 59/114/2
f 68/182/3 67/183/3 66/184/3
f 71/185/3 99/186/3 100/187/3
f 71/185/3 66/184/3 99/186/3
f 71/185/3 68/182/3 66/184/3
f 68/188/22 64/189/22 67/190/22
f 68/188/22 69/191/22 64/189/22
f 74/192/3 76/193/3 52/175/3
f 65/194/3 74/192/3 52/175/3
f 63/195/3 65/194/3 52/175/3
f 101/196/3 52/175/3 94/177/3
f 101/196/3 63/195/3 52/175/3
f 102/197/3 101/196/3 94/177/3
f 103/198/3 94/177/3 104/199/3
f 103/198/3 102/197/3 94/177/3
f 101/200/17 66/125/17 63/122/17
f 99/201/17 66/125/17 101/200/17
f 105/202/22 106/203/22 107/204/22
f 108/205/22 106/203/22 105/202/22
f 109/206/22 107/204/22 106/203/22
f 110/207/22 109/206/22 111/208/22
f 110/207/22 107/204/22 109/206/22
f 112/209/22 110/207/22 111/208/22
f 72/210/22 107/204/22 110/207/22
f 113/211/22 72/210/22 110/207/22
f 70/212/22 113/211/22 114/213/22
f 70/212/22 72/210/22 113/211/22
f 72/214/3 115/215/3 107/216/3
f 72/214/3 73/217/3 115/215/3
f 71/218/2 100/219/2 115/220/2
f 73/221/2 71/218/2 115/220/2
f 57/222/18 98/223/18 79/224/18
f 98/225/17 78/226/17 79/227/17
f 98/225/17 97/228/17 78/226/17
f 97/229/3 56/230/3 78/231/3
f 55/232/18 95/233/18 77/234/18
f 95/235/17 75/236/17 77/237/17
f 95/235/17 96/238/17 75/236/17
f 96/239/3 53/240/3 75/241/3
f 116/242/17 70/133/17 117/243/17
f 80/159/17 70/133/17 116/242/17
f 118/244/18 116/245/18 119/246/18
f 120/247/18 116/245/18 118/244/18
f 82/162/18 116/245/18 120/247/18
f 82/162/18 80/161/18 116/245/18
f 47/99/18 83/163/18 84/164/18
f 84/164/18 81/160/18 87/167/18
f 83/163/18 81/160/18 84/164/18
f 81/160/18 82/162/18 87/167/18
f 86/166/1 88/168/1 87/167/1
f 86/166/1 91/171/1 88/168/1
f 88/168/1 84/164/1 87/167/1
f 88/168/1 90/170/1 84/164/1
f 89/169/1 93/173/1 90/170/1
f 90/170/1 93/173/1 84/164/1
f 87/167/18 119/246/18 85/165/18
f 87/167/18 118/244/18 119/246/18
f 82/162/18 120/247/18 87/167/18
f 87/167/18 120/247/18 118/244/18
f 92/248/22 121/249/22 94/250/22
f 121/249/22 122/251/22 123/252/22
f 92/248/22 122/251/22 121/249/22
f 122/251/22 124/253/22 123/252/22
f 125/254/22 126/255/22 127/256/22
f 128/257/22 126/255/22 125/254/22
f 129/258/22 119/259/22 130/260/22
f 85/261/22 119/259/22 129/258/22
f 92/248/22 85/261/22 129/258/22
f 92/248/22 129/258/22 128/257/22
f 92/248/22 128/257/22 125/254/22
f 92/248/22 125/254/22 122/251/22
f 102/262/23 115/263/23 101/200/23
f 107/264/23 115/263/23 102/262/23
f 100/265/23 99/201/23 115/263/23
f 115/263/23 99/201/23 101/200/23
f 131/266/23 105/267/23 132/268/23
f 105/267/23 107/264/23 132/268/23
f 132/268/23 107/264/23 133/269/23
f 102/262/23 133/269/23 107/264/23
f 94/250/22 121/249/22 104/270/22
f 121/249/22 123/252/22 104/270/22
f 103/271/24 134/272/24 102/273/24
f 134/272/24 135/274/24 102/273/24
f 136/275/24 133/269/24 137/276/24
f 137/276/24 133/269/24 135/277/24
f 135/277/24 133/269/24 102/262/24
f 123/252/25 138/278/25 104/270/25
f 138/278/25 103/271/25 104/270/25
f 138/278/25 139/279/25 103/271/25
f 124/253/25 140/280/25 139/279/25
f 127/256/25 140/280/25 124/253/25
f 139/279/25 140/280/25 103/271/25
f 126/255/25 130/260/25 141/281/25
f 130/260/25 142/282/25 141/281/25
f 143/283/25 144/284/25 142/282/25
f 142/282/25 145/285/25 141/281/25
f 144/284/25 145/285/25 142/282/25
f 145/285/25 146/286/25 141/281/25
f 141/281/25 134/272/25 140/280/25
f 140/280/25 134/272/25 103/271/25
f 146/286/25 134/272/25 141/281/25
f 117/287/3 114/288/3 147/289/3
f 70/290/3 114/288/3 117/287/3
f 147/291/17 113/292/17 148/293/17
f 114/294/17 113/292/17 147/291/17
f 148/295/3 110/296/3 149/297/3
f 113/298/3 110/296/3 148/295/3
f 149/299/1 112/209/1 150/300/1
f 110/207/1 112/209/1 149/299/1
f 150/301/3 111/302/3 151/303/3
f 112/304/3 111/302/3 150/301/3
f 151/305/17 109/306/17 152/307/17
f 111/308/17 109/306/17 151/305/17
f 152/309/3 106/310/3 153/311/3
f 109/312/3 106/310/3 152/309/3
f 153/313/1 108/314/1 154/315/1
f 106/316/1 108/314/1 153/313/1
f 154/317/3 131/318/3 155/319/3
f 108/320/3 131/318/3 154/317/3
f 108/320/3 105/321/3 131/318/3
f 147/322/22 116/242/22 117/243/22
f 150/323/22 147/322/22 148/324/22
f 150/323/22 116/242/22 147/322/22
f 149/325/22 150/323/22 148/324/22
f 151/326/22 116/242/22 150/323/22
f 154/327/22 151/326/22 152/328/22
f 153/329/22 154/327/22 152/328/22
f 156/330/22 155/331/22 157/332/22
f 119/259/22 156/330/22 158/333/22
f 119/259/22 155/331/22 156/330/22
f 159/334/22 119/259/22 158/333/22
f 160/335/22 119/259/22 159/334/22
f 161/336/22 119/259/22 160/335/22
f 162/337/22 119/259/22 161/336/22
f 163/338/22 119/259/22 162/337/22
f 130/260/22 163/338/22 164/339/22
f 119/259/22 116/242/22 151/326/22
f 119/259/22 151/326/22 154/327/22
f 119/259/22 154/327/22 155/331/22
f 130/260/22 119/259/22 163/338/22
f 128/257/22 130/260/22 126/255/22
f 129/258/22 130/260/22 128/257/22
f 127/256/22 165/340/22 166/341/22
f 127/256/22 126/255/22 165/340/22
f 122/251/22 125/254/22 124/253/22
f 125/254/22 127/256/22 124/253/22
f 167/342/22 124/253/22 168/343/22
f 123/252/22 124/253/22 167/342/22
f 157/344/3 136/345/3 156/346/3
f 133/347/3 136/345/3 157/344/3
f 157/344/3 132/348/3 133/347/3
f 155/349/17 131/266/17 157/350/17
f 131/266/17 132/268/17 157/350/17
f 162/351/5 143/352/5 163/353/5
f 144/354/26 143/352/26 162/351/26
f 161/355/27 144/354/27 162/351/27
f 145/356/28 144/354/28 161/355/28
f 160/357/29 145/356/29 161/355/29
f 146/358/30 145/356/30 160/357/30
f 159/359/31 146/360/31 160/357/31
f 134/361/32 146/360/32 159/359/32
f 135/362/33 159/359/33 158/363/33
f 135/362/34 134/361/34 159/359/34
f 137/364/35 158/363/35 156/346/35
f 137/364/36 135/362/36 158/363/36
f 136/345/37 137/364/37 156/346/37
f 142/365/3 130/366/3 164/367/3
f 143/352/17 164/368/17 163/353/17
f 143/352/17 142/369/17 164/368/17
f 138/370/3 123/371/3 167/372/3
f 139/373/17 167/374/17 168/375/17
f 139/373/17 138/376/17 167/374/17
f 124/377/18 139/378/18 168/379/18
f 140/380/3 127/381/3 166/382/3
f 141/383/17 166/384/17 165/385/17
f 141/383/17 140/386/17 166/384/17
f 126/387/18 141/388/18 165/389/18
