g 1
v 0.424 -0.5 -0.283
v 0.283 -0.5 -0.424
v 0.424 0.5 -0.283
v 0.283 0.5 -0.424
v 0.099 -0.5 -0.5
v 0.099 0.5 -0.5
v -0.099 -0.5 -0.5
v -0.099 0.5 -0.5
v -0.283 -0.5 -0.424
v -0.283 0.5 -0.424
v -0.424 -0.5 -0.283
v -0.424 0.5 -0.283
v -0.5 0.5 -0.099
v -0.5 -0.5 -0.099
v -0.5 -0.5 0.099
v -0.5 0.5 0.099
v -0.424 -0.5 0.283
v -0.424 0.5 0.283
v -0.283 -0.5 0.424
v -0.283 0.5 0.424
v -0.099 -0.5 0.5
v -0.099 0.5 0.5
v 0.099 -0.5 0.5
v 0.099 0.5 0.5
v 0.283 0.5 0.424
v 0.283 -0.5 0.424
v 0.424 -0.5 0.283
v 0.424 0.5 0.283
v 0.5 -0.5 0.099
v 0.5 0.5 0.099
v 0.5 -0.5 -0.099
v 0.5 0.5 -0.099
vt 0.924 0
vt 0.783 0
vt 0.924 1
vt 0.783 1
vt 0.599 0
vt 0.599 1
vt 0.401 0
vt 0.401 1
vt 0.217 0
vt 0.217 1
vt 0.076 0
vt 0.076 1
vt 0.783 1
vt 0.783 0
vt 0.599 1
vt 0.599 0
vt 0.401 0
vt 0.401 1
vt 0.217 0
vt 0.217 1
vt 0.076 0
vt 0.217 0
vt 0.076 1
vt 0.217 1
vt 0.401 0
vt 0.401 1
vt 0.599 0
vt 0.599 1
vt 0.783 1
vt 0.783 0
vt 0.924 0
vt 0.924 1
vt 0.217 0
vt 0.401 0
vt 0.217 1
vt 0.401 1
vt 0.599 0
vt 0.599 1
vt 0.783 1
vt 0.783 0
vt 0.076 0.217
vt 0 0.401
vt 0.217 0.076
vt 0.783 0.076
vt 0 0.599
vt 0.076 0.783
vt 0.924 0.217
vt 0.217 0.924
vt 0.401 1
vt 0.599 1
vt 0.924 0.783
vt 1 0.401
vt 1 0.599
vt 0.783 0.924
vt 0 0.401
vt 0.076 0.217
vt 0.217 0.076
vt 0.783 0.076
vt 0.401 0
vt 0.599 0
vt 0.076 0.783
vt 0 0.599
vt 0.924 0.217
vt 0.217 0.924
vt 0.924 0.783
vt 1 0.401
vt 1 0.599
vt 0.783 0.924
vn 0.707 0 -0.707
vn 0.383 0 -0.924
vn 0 0 -1
vn -0.383 0 -0.924
vn -0.707 0 -0.707
vn -0.924 0 -0.383
vn -1 0 0
vn -0.924 0 0.383
vn -0.707 0 0.707
vn -0.383 0 0.924
vn 0 0 1
vn 0.383 0 0.924
vn 0.707 0 0.707
vn 0.924 0 0.383
vn 1 0 0
vn 0.924 0 -0.383
vn 0 -1 0
vn 0 1 0
s off
f 1/1/1 2/2/1 3/3/1
f 3/3/1 2/2/1 4/4/1
f 2/2/2 5/5/2 4/4/2
f 4/4/2 5/5/2 6/6/2
f 5/5/3 7/7/3 6/6/3
f 6/6/3 7/7/3 8/8/3
f 7/7/4 9/9/4 8/8/4
f 8/8/4 9/9/4 10/10/4
f 9/9/5 11/11/5 10/10/5
f 10/10/5 11/11/5 12/12/5
f 12/13/6 11/14/6 13/15/6
f 11/14/6 14/16/6 13/15/6
f 14/16/7 15/17/7 13/15/7
f 13/15/7 15/17/7 16/18/7
f 15/17/8 17/19/8 16/18/8
f 16/18/8 17/19/8 18/20/8
f 17/21/9 19/22/9 18/23/9
f 18/23/9 19/22/9 20/24/9
f 19/22/10 21/25/10 20/24/10
f 20/24/10 21/25/10 22/26/10
f 21/25/11 23/27/11 22/26/11
f 22/26/11 23/27/11 24/28/11
f 24/28/12 23/27/12 25/29/12
f 23/27/12 26/30/12 25/29/12
f 26/30/13 27/31/13 25/29/13
f 25/29/13 27/31/13 28/32/13
f 27/33/14 29/34/14 28/35/14
f 28/35/14 29/34/14 30/36/14
f 29/34/15 31/37/15 30/36/15
f 30/36/15 31/37/15 32/38/15
f 32/38/16 31/37/16 3/39/16
f 31/37/16 1/40/16 3/39/16
f 17/41/17 15/42/17 19/43/17
f 19/43/17 26/44/17 21/25/17
f 21/25/17 26/44/17 23/27/17
f 15/42/17 26/44/17 19/43/17
f 14/45/17 11/46/17 15/42/17
f 15/42/17 27/47/17 26/44/17
f 11/46/17 27/47/17 15/42/17
f 9/48/17 7/49/17 11/46/17
f 7/49/17 5/50/17 11/46/17
f 27/47/17 1/51/17 29/52/17
f 29/52/17 1/51/17 31/53/17
f 11/46/17 1/51/17 27/47/17
f 5/50/17 1/51/17 11/46/17
f 5/50/17 2/54/17 1/51/17
f 16/55/18 18/56/18 20/57/18
f 25/58/18 20/57/18 22/59/18
f 25/58/18 22/59/18 24/60/18
f 25/58/18 16/55/18 20/57/18
f 12/61/18 13/62/18 16/55/18
f 28/63/18 16/55/18 25/58/18
f 28/63/18 12/61/18 16/55/18
f 8/8/18 10/64/18 12/61/18
f 6/6/18 8/8/18 12/61/18
f 3/65/18 28/63/18 30/66/18
f 3/65/18 30/66/18 32/67/18
f 3/65/18 12/61/18 28/63/18
f 3/65/18 6/6/18 12/61/18
f 4/68/18 6/6/18 3/65/18
