g 1
v 0.5 -0.5 0.5
v -0.5 -0.5 0.5
v 0.5 -0.5 0.313
v -0.5 -0.5 0.313
v 0.5 -0.187 0.313
v -0.5 -0.187 0.313
v -0.5 -0.187 0.375
v 0.5 -0.187 0.375
v 0.5 -0.062 0.375
v -0.5 -0.062 0.375
v -0.5 -0.062 0.438
v 0.5 -0.062 0.438
v -0.5 0 0.438
v 0.5 0 0.438
v 0.5 0 0.375
v -0.5 0 0.375
v 0.5 0.125 0.375
v -0.5 0.125 0.375
v -0.5 0.125 0.438
v 0.5 0.125 0.438
v -0.5 0.188 0.438
v 0.5 0.188 0.438
v -0.5 0.188 0.5
v 0.5 0.188 0.5
v -0.5 -0.062 0.438
v -0.5 -0.062 0.375
v -0.5 0 0.438
v -0.5 0.125 0.375
v -0.5 0 0.375
v -0.5 0.125 0.438
v -0.5 0.188 0.5
v -0.5 0.188 0.438
v 0.5 -0.187 0.375
v 0.5 -0.062 0.375
v 0.5 0.125 0.375
v 0.5 0 0.438
v 0.5 0 0.375
v 0.5 0.125 0.438
v 0.5 0.188 0.5
v 0.5 0.188 0.438
vt 1 0
vt 0 0
vt 1 0.273
vt 0 0.273
vt 1 0
vt 0 0
vt 1 0.455
vt 0 0.455
vt 0 0.273
vt 0 0.182
vt 1 0.273
vt 1 0.182
vt 1 0.455
vt 0 0.455
vt 1 0.636
vt 0 0.636
vt 0 0.182
vt 0 0.091
vt 1 0.182
vt 1 0.091
vt 0 0.636
vt 0 0.727
vt 1 0.636
vt 1 0.727
vt 1 0.091
vt 0 0.091
vt 1 0.182
vt 0 0.182
vt 1 0.727
vt 0 0.727
vt 1 0.909
vt 0 0.909
vt 0 0.182
vt 0 0.091
vt 1 0.182
vt 1 0.091
vt 0 0.909
vt 0 1
vt 1 0.909
vt 1 1
vt 0 0.091
vt 0 0
vt 1 0.091
vt 1 0
vt 0 1
vt 1 1
vt 0.125 0.455
vt 0.188 0
vt 0.188 0.455
vt 0.063 0.636
vt 0.125 0.636
vt 0.063 0.727
vt 0.125 0.909
vt 0.125 0.727
vt 0.063 0.909
vt 0 1
vt 0.063 1
vt 0.125 0.455
vt 0 0
vt 0.188 0
vt 0.188 0.455
vt 0.063 0.636
vt 0.125 0.636
vt 0.125 0.909
vt 0.063 0.727
vt 0.125 0.727
vt 0.063 0.909
vt 0 1
vt 0.063 1
vn 0 -1 0
vn 0 0 -1
vn 0 1 0
vn 0 0 1
vn -1 0 0
vn 1 0 0
s off
f 1/1/1 2/2/1 3/3/1
f 2/2/1 4/4/1 3/3/1
f 3/5/2 4/6/2 5/7/2
f 4/6/2 6/8/2 5/7/2
f 6/9/3 7/10/3 5/11/3
f 5/11/3 7/10/3 8/12/3
f 8/13/2 7/14/2 9/15/2
f 7/14/2 10/16/2 9/15/2
f 10/17/3 11/18/3 9/19/3
f 9/19/3 11/18/3 12/20/3
f 11/21/2 13/22/2 12/23/2
f 12/23/2 13/22/2 14/24/2
f 14/25/1 13/26/1 15/27/1
f 13/26/1 16/28/1 15/27/1
f 15/29/2 16/30/2 17/31/2
f 16/30/2 18/32/2 17/31/2
f 18/33/3 19/34/3 17/35/3
f 17/35/3 19/34/3 20/36/3
f 19/37/2 21/38/2 20/39/2
f 20/39/2 21/38/2 22/40/2
f 21/41/3 23/42/3 22/43/3
f 22/43/3 23/42/3 24/44/3
f 23/45/4 2/2/4 24/46/4
f 24/46/4 2/2/4 1/1/4
f 2/2/5 7/47/5 4/48/5
f 4/48/5 7/47/5 6/49/5
f 7/47/5 25/50/5 26/51/5
f 2/2/5 25/50/5 7/47/5
f 27/52/5 28/53/5 29/54/5
f 27/52/5 30/55/5 28/53/5
f 30/55/5 31/56/5 32/57/5
f 27/52/5 31/56/5 30/55/5
f 2/2/5 31/56/5 25/50/5
f 25/50/5 31/56/5 27/52/5
f 33/58/6 1/59/6 3/60/6
f 33/58/6 3/60/6 5/61/6
f 12/62/6 33/58/6 34/63/6
f 12/62/6 1/59/6 33/58/6
f 35/64/6 36/65/6 37/66/6
f 38/67/6 36/65/6 35/64/6
f 39/68/6 38/67/6 40/69/6
f 39/68/6 36/65/6 38/67/6
f 39/68/6 1/59/6 12/62/6
f 39/68/6 12/62/6 36/65/6
