g 1
v -0.5 -0.5 0
v 0.5 -0.5 0
v -0.5 -0.5 0.5
v 0.5 -0.5 0.5
v -0.5 -0.187 0.401
v -0.5 -0.187 0
v -0.5 -0.187 0.5
v 0.099 -0.187 0
v 0.5 -0.187 0
v -0.099 -0.187 0
v 0.5 -0.187 0.5
v 0.5 -0.187 0.401
v -0.5 0.5 0.5
v 0.5 0.5 0.5
v -0.5 0.5 0.401
v -0.424 -0.187 0.217
v -0.283 -0.187 0.076
v 0.424 -0.187 0.217
v 0.283 -0.187 0.076
v 0.099 0.5 0
v -0.099 0.5 0
v 0.5 0.5 0.401
v 0.424 0.5 0.217
v 0.283 0.5 0.076
v -0.283 0.5 0.076
v -0.424 0.5 0.217
vt 0 0.5
vt 1 0.5
vt 0 0
vt 1 0
vt 0.5 0
vt 0.099 0.313
vt 0.5 0.313
vt 0 0.313
vt 1 0
vt 0.599 0.313
vt 1 0.313
vt 0 0
vt 0.401 0.313
vt 0 0.313
vt 0 0.313
vt 0 0
vt 0.099 0.313
vt 0.5 0
vt 0.5 0.313
vt 1 0.313
vt 0 1
vt 1 1
vt 0.099 1
vt 0 0.5
vt 0 0.099
vt 0.076 0.283
vt 0.217 0.424
vt 0.401 0.5
vt 1 0.5
vt 0.924 0.283
vt 1 0.099
vt 0.783 0.424
vt 0.599 0.5
vt 0.599 1
vt 0.401 1
vt 0 1
vt 0.099 1
vt 0.924 0.283
vt 1 0
vt 1 0.099
vt 0.783 0.424
vt 0.599 0.5
vt 0.401 0.5
vt 0 0
vt 0.217 0.424
vt 0.076 0.283
vt 0 0.099
vt 0.283 1
vt 0.283 0.313
vt 0.217 1
vt 0.217 0.313
vt 0.424 1
vt 0.424 0.313
vt 0.283 0.313
vt 0.283 1
vt 0.424 1
vt 0.424 0.313
vt 0.783 1
vt 0.783 0.313
vn 0 -1 0
vn -1 0 0
vn 0 0 -1
vn 1 0 0
vn 0 0 1
vn 0 1 0
vn -0.924 0 -0.383
vn -0.383 0 -0.924
vn -0.707 0 -0.707
vn 0.924 0 -0.383
vn 0.707 0 -0.707
vn 0.383 0 -0.924
s off
f 1/1/1 2/2/1 3/3/1
f 3/3/1 2/2/1 4/4/1
f 1/5/2 5/6/2 6/7/2
f 5/6/2 3/3/2 7/8/2
f 1/5/2 3/3/2 5/6/2
f 2/9/3 8/10/3 9/11/3
f 8/10/3 1/12/3 10/13/3
f 10/13/3 1/12/3 6/14/3
f 2/9/3 1/12/3 8/10/3
f 11/15/4 4/16/4 12/17/4
f 12/17/4 2/18/4 9/19/4
f 4/16/4 2/18/4 12/17/4
f 11/20/5 13/21/5 7/8/5
f 11/20/5 7/8/5 3/3/5
f 11/20/5 3/3/5 4/4/5
f 14/22/5 13/21/5 11/20/5
f 15/23/2 5/6/2 13/21/2
f 5/6/2 7/8/2 13/21/2
f 6/24/6 5/25/6 16/26/6
f 17/27/6 6/24/6 16/26/6
f 10/28/6 6/24/6 17/27/6
f 9/29/6 18/30/6 12/31/6
f 9/29/6 19/32/6 18/30/6
f 9/29/6 8/33/6 19/32/6
f 20/34/3 8/10/3 21/35/3
f 8/10/3 10/13/3 21/35/3
f 14/36/4 12/17/4 22/37/4
f 11/15/4 12/17/4 14/36/4
f 23/38/6 14/39/6 22/40/6
f 24/41/6 14/39/6 23/38/6
f 20/42/6 14/39/6 24/41/6
f 21/43/6 13/44/6 14/39/6
f 21/43/6 14/39/6 20/42/6
f 25/45/6 13/44/6 21/43/6
f 26/46/6 15/47/6 13/44/6
f 26/46/6 13/44/6 25/45/6
f 26/48/7 16/49/7 15/23/7
f 16/49/7 5/6/7 15/23/7
f 21/35/8 10/13/8 25/50/8
f 10/13/8 17/51/8 25/50/8
f 25/52/9 17/53/9 26/48/9
f 17/53/9 16/49/9 26/48/9
f 12/17/10 18/54/10 22/37/10
f 22/37/10 18/54/10 23/55/10
f 23/55/11 18/54/11 24/56/11
f 18/54/11 19/57/11 24/56/11
f 24/58/12 19/59/12 20/34/12
f 19/59/12 8/10/12 20/34/12
